<svg width="16" height="16" viewBox="0 0 16 16" fill="none" xmlns="http://www.w3.org/2000/svg">
<path d="M8.03431 10.5532C7.29945 10.5532 6.59469 10.2708 6.07507 9.76804C5.55544 9.26529 5.26352 8.58341 5.26352 7.87241C5.26352 7.16141 5.55544 6.47953 6.07507 5.97678C6.59469 5.47402 7.29945 5.19158 8.03431 5.19158C8.76918 5.19158 9.47394 5.47402 9.99356 5.97678C10.5132 6.47953 10.8051 7.16141 10.8051 7.87241C10.8051 8.58341 10.5132 9.26529 9.99356 9.76804C9.47394 10.2708 8.76918 10.5532 8.03431 10.5532ZM13.9163 8.61538C13.948 8.37028 13.9717 8.12517 13.9717 7.87241C13.9717 7.61965 13.948 7.36688 13.9163 7.10646L15.5867 5.85796C15.7371 5.74306 15.7767 5.53626 15.6817 5.36775L14.0984 2.71755C14.0034 2.54904 13.7897 2.48011 13.6155 2.54904L11.6443 3.315C11.2326 3.01628 10.8051 2.75585 10.3064 2.56436L10.0135 0.534591C9.98179 0.350762 9.81554 0.212891 9.61763 0.212891H6.451C6.25309 0.212891 6.08684 0.350762 6.05517 0.534591L5.76226 2.56436C5.26352 2.75585 4.83602 3.01628 4.42436 3.315L2.45314 2.54904C2.27898 2.48011 2.06523 2.54904 1.97023 2.71755L0.386918 5.36775C0.284003 5.53626 0.331502 5.74306 0.481917 5.85796L2.15231 7.10646C2.12064 7.36688 2.09689 7.61965 2.09689 7.87241C2.09689 8.12517 2.12064 8.37028 2.15231 8.61538L0.481917 9.88686C0.331502 10.0018 0.284003 10.2086 0.386918 10.3771L1.97023 13.0273C2.06523 13.1958 2.27898 13.2571 2.45314 13.1958L4.42436 12.4222C4.83602 12.7285 5.26352 12.989 5.76226 13.1805L6.05517 15.2102C6.08684 15.3941 6.25309 15.5319 6.451 15.5319H9.61763C9.81554 15.5319 9.98179 15.3941 10.0135 15.2102L10.3064 13.1805C10.8051 12.9813 11.2326 12.7285 11.6443 12.4222L13.6155 13.1958C13.7897 13.2571 14.0034 13.1958 14.0984 13.0273L15.6817 10.3771C15.7767 10.2086 15.7371 10.0018 15.5867 9.88686L13.9163 8.61538Z" fill="#78909C"/>
</svg>
