<svg width="34" height="34" viewBox="0 0 34 34" fill="none" xmlns="http://www.w3.org/2000/svg">
<path fill-rule="evenodd" clip-rule="evenodd" d="M17 0C7.616 0 0 7.616 0 17C0 26.384 7.616 34 17 34C26.384 34 34 26.384 34 17C34 7.616 26.384 0 17 0V0ZM17 4.68966C19.9193 4.68966 22.2759 7.04621 22.2759 9.96552C22.2759 12.8848 19.9193 15.2414 17 15.2414C14.0807 15.2414 11.7241 12.8848 11.7241 9.96552C11.7241 7.04621 14.0807 4.68966 17 4.68966V4.68966ZM17 29.3103C12.8477 29.3103 9.17707 27.1665 7.03448 23.9172C7.08431 20.5842 13.6782 18.7586 17 18.7586C20.3052 18.7586 26.9157 20.5842 26.9655 23.9172C24.8229 27.1665 21.1523 29.3103 17 29.3103V29.3103Z" fill="#003569"/>
</svg>
