<svg width="56" height="31" viewBox="0 0 56 31" fill="none" xmlns="http://www.w3.org/2000/svg">
<g clip-path="url(#clip0_298_1311)">
<path d="M40.672 10.2364H55.3274C55.4163 10.2379 55.5047 10.2217 55.5873 10.1886C55.67 10.1556 55.7452 10.1065 55.8087 10.0441C55.8721 9.98167 55.9225 9.90726 55.9569 9.82518C55.9913 9.74311 56.009 9.65501 56.0089 9.56602V1.37351C56.009 1.28453 55.9913 1.19642 55.9569 1.11435C55.9225 1.03227 55.8721 0.957865 55.8087 0.895462C55.7452 0.83306 55.67 0.783912 55.5873 0.750885C55.5047 0.717858 55.4163 0.701613 55.3274 0.703096H36.1489C36.0018 0.703383 35.8563 0.733426 35.7211 0.791417C35.5859 0.849409 35.4639 0.934149 35.3623 1.04054L29.999 6.66311L24.6602 1.04054C24.5583 0.933981 24.4359 0.849151 24.3003 0.791158C24.1647 0.733166 24.0188 0.703211 23.8713 0.703096H6.13432C5.98696 0.70302 5.84115 0.733118 5.70586 0.791537C5.57058 0.849956 5.44869 0.935458 5.3477 1.04277L0.299453 6.36366C0.10741 6.56472 0.000171974 6.83202 0 7.11006L0 30.0383C0 30.2162 0.0706331 30.3867 0.196361 30.5124C0.322089 30.6381 0.492612 30.7088 0.670418 30.7088H8.85175C9.02956 30.7088 9.20008 30.6381 9.32581 30.5124C9.45154 30.3867 9.52217 30.2162 9.52217 30.0383V11.4901C9.52217 11.1938 9.63989 10.9096 9.84944 10.7C10.059 10.4905 10.3432 10.3728 10.6395 10.3728H19.355C19.6513 10.3728 19.9355 10.4905 20.1451 10.7C20.3546 10.9096 20.4723 11.1938 20.4723 11.4901V30.0383C20.4723 30.2162 20.543 30.3867 20.6687 30.5124C20.7944 30.6381 20.9649 30.7088 21.1427 30.7088H29.3151C29.4929 30.7088 29.6635 30.6381 29.7892 30.5124C29.9149 30.3867 29.9856 30.2162 29.9856 30.0383V24.7711L35.3333 30.3825C35.4349 30.4886 35.5571 30.573 35.6923 30.6306C35.8275 30.6882 35.9729 30.7178 36.1199 30.7177H55.2894C55.3783 30.7192 55.4667 30.7029 55.5494 30.6699C55.632 30.6369 55.7072 30.5877 55.7707 30.5253C55.8341 30.4629 55.8845 30.3885 55.9189 30.3064C55.9533 30.2244 55.971 30.1363 55.971 30.0473V21.866C55.971 21.777 55.9533 21.6889 55.9189 21.6068C55.8845 21.5247 55.8341 21.4503 55.7707 21.3879C55.7072 21.3255 55.632 21.2764 55.5494 21.2433C55.4667 21.2103 55.3783 21.1941 55.2894 21.1955H40.672C40.3757 21.1955 40.0915 21.0778 39.8819 20.8683C39.6724 20.6587 39.5547 20.3745 39.5547 20.0782V11.3583C39.5541 11.2112 39.5825 11.0654 39.6384 10.9293C39.6943 10.7932 39.7765 10.6695 39.8803 10.5653C39.9842 10.4611 40.1075 10.3783 40.2434 10.3219C40.3792 10.2655 40.5249 10.2364 40.672 10.2364Z" fill="#003569"/>
</g>
<defs>
<clipPath id="clip0_298_1311">
<rect width="56" height="30.0146" fill="white" transform="translate(0 0.703125)"/>
</clipPath>
</defs>
</svg>
