<svg width="116" height="38" viewBox="0 0 116 38" fill="none" xmlns="http://www.w3.org/2000/svg">
<g clip-path="url(#clip0_79_472)">
<path d="M40.672 9.53331H55.3274C55.4163 9.5348 55.5047 9.51855 55.5873 9.48552C55.67 9.4525 55.7452 9.40335 55.8087 9.34095C55.8721 9.27854 55.9225 9.20414 55.9569 9.12206C55.9913 9.03998 56.009 8.95188 56.0089 8.86289V0.670389C56.009 0.5814 55.9913 0.4933 55.9569 0.411224C55.9225 0.329148 55.8721 0.25474 55.8087 0.192337C55.7452 0.129935 55.67 0.0807874 55.5873 0.0477604C55.5047 0.0147335 55.4163 -0.00151209 55.3274 -2.89432e-05H36.1489C36.0018 0.000258237 35.8563 0.0303013 35.7211 0.0882924C35.5859 0.146284 35.4639 0.231024 35.3623 0.337415L29.999 5.95999L24.6602 0.337415C24.5583 0.230856 24.4359 0.146026 24.3003 0.0880333C24.1647 0.0300409 24.0188 8.55045e-05 23.8713 -2.89432e-05H6.13432C5.98696 -0.000105225 5.84115 0.0299933 5.70586 0.0884122C5.57058 0.146831 5.44869 0.232333 5.3477 0.339649L0.299453 5.66053C0.10741 5.86159 0.000171974 6.12889 0 6.40693L0 29.3352C0 29.513 0.0706331 29.6835 0.196361 29.8093C0.322089 29.935 0.492612 30.0056 0.670418 30.0056H8.85175C9.02956 30.0056 9.20008 29.935 9.32581 29.8093C9.45154 29.6835 9.52217 29.513 9.52217 29.3352V10.787C9.52217 10.4907 9.63989 10.2064 9.84944 9.9969C10.059 9.78735 10.3432 9.66963 10.6395 9.66963H19.355C19.6513 9.66963 19.9355 9.78735 20.1451 9.9969C20.3546 10.2064 20.4723 10.4907 20.4723 10.787V29.3352C20.4723 29.513 20.543 29.6835 20.6687 29.8093C20.7944 29.935 20.9649 30.0056 21.1427 30.0056H29.3151C29.4929 30.0056 29.6635 29.935 29.7892 29.8093C29.9149 29.6835 29.9856 29.513 29.9856 29.3352V24.068L35.3333 29.6794C35.4349 29.7855 35.5571 29.8699 35.6923 29.9275C35.8275 29.9851 35.9729 30.0147 36.1199 30.0146H55.2894C55.3783 30.0161 55.4667 29.9998 55.5494 29.9668C55.632 29.9338 55.7072 29.8846 55.7707 29.8222C55.8341 29.7598 55.8845 29.6854 55.9189 29.6033C55.9533 29.5212 55.971 29.4331 55.971 29.3442V21.1628C55.971 21.0738 55.9533 20.9857 55.9189 20.9037C55.8845 20.8216 55.8341 20.7472 55.7707 20.6848C55.7072 20.6224 55.632 20.5732 55.5494 20.5402C55.4667 20.5072 55.3783 20.4909 55.2894 20.4924H40.672C40.3757 20.4924 40.0915 20.3747 39.8819 20.1651C39.6724 19.9556 39.5547 19.6714 39.5547 19.375V10.6551C39.5541 10.508 39.5825 10.3623 39.6384 10.2262C39.6943 10.0901 39.7765 9.96639 39.8803 9.86216C39.9842 9.75793 40.1075 9.67522 40.2434 9.61879C40.3792 9.56236 40.5249 9.53331 40.672 9.53331Z" fill="white"/>
</g>
<path d="M64.78 31.28C63.28 31.28 61.62 30.62 60.52 29.7L61.86 27.86C62.86 28.64 63.82 29.08 64.86 29.08C65.98 29.08 66.48 28.6 66.48 27.9C66.48 27.06 65.32 26.68 64.14 26.22C62.72 25.68 61.08 24.82 61.08 22.96C61.08 20.94 62.72 19.52 65.24 19.52C66.88 19.52 68.12 20.2 69.06 20.9L67.74 22.68C66.94 22.12 66.16 21.72 65.32 21.72C64.32 21.72 63.84 22.16 63.84 22.8C63.84 23.62 64.94 23.92 66.12 24.36C67.6 24.92 69.24 25.66 69.24 27.74C69.24 29.7 67.7 31.28 64.78 31.28ZM71.4823 35.3V19.8H73.8823L74.0823 20.96H74.1623C75.1023 20.16 76.2623 19.52 77.4623 19.52C80.2223 19.52 81.8623 21.78 81.8623 25.22C81.8623 29.06 79.5623 31.28 77.1023 31.28C76.1223 31.28 75.1823 30.84 74.3223 30.06L74.4023 31.9V35.3H71.4823ZM76.4423 28.86C77.8023 28.86 78.8423 27.7 78.8423 25.26C78.8423 23.12 78.1623 21.94 76.6223 21.94C75.8623 21.94 75.1823 22.32 74.4023 23.1V28.02C75.1223 28.64 75.8423 28.86 76.4423 28.86ZM86.84 31.28C84.84 31.28 83.52 29.86 83.52 27.96C83.52 25.56 85.46 24.3 89.96 23.82C89.92 22.72 89.44 21.88 88.06 21.88C87.02 21.88 86.02 22.34 84.98 22.94L83.92 21C85.24 20.18 86.84 19.52 88.6 19.52C91.44 19.52 92.9 21.22 92.9 24.46V31H90.5L90.28 29.8H90.22C89.24 30.64 88.12 31.28 86.84 31.28ZM87.8 28.98C88.64 28.98 89.26 28.58 89.96 27.88V25.62C87.24 25.98 86.32 26.72 86.32 27.72C86.32 28.6 86.94 28.98 87.8 28.98ZM100.656 31.28C97.5564 31.28 95.1964 29.12 95.1964 25.42C95.1964 21.68 97.8764 19.52 100.916 19.52C102.296 19.52 103.356 20.06 104.176 20.76L102.776 22.66C102.216 22.18 101.696 21.92 101.056 21.92C99.3564 21.92 98.1964 23.3 98.1964 25.42C98.1964 27.52 99.3564 28.88 100.976 28.88C101.776 28.88 102.536 28.5 103.156 27.98L104.316 29.92C103.256 30.86 101.896 31.28 100.656 31.28ZM110.698 31.28C107.578 31.28 105.138 29.1 105.138 25.42C105.138 21.78 107.678 19.52 110.358 19.52C113.438 19.52 115.038 21.78 115.038 24.88C115.038 25.42 114.978 25.96 114.898 26.22H107.998C108.238 28.06 109.438 29.02 111.098 29.02C112.018 29.02 112.818 28.74 113.618 28.24L114.618 30.04C113.518 30.8 112.098 31.28 110.698 31.28ZM107.958 24.28H112.518C112.518 22.76 111.838 21.8 110.398 21.8C109.218 21.8 108.178 22.64 107.958 24.28Z" fill="white"/>
<defs>
<clipPath id="clip0_79_472">
<rect width="56" height="30.0146" fill="white"/>
</clipPath>
</defs>
</svg>
