<svg width="33" height="30" viewBox="0 0 33 30" fill="none" xmlns="http://www.w3.org/2000/svg">
<path d="M20.5793 21.1262H27.3774C29.5261 21.1262 31.262 19.3903 31.262 17.2416C31.262 15.0929 29.5261 13.357 27.3774 13.357C26.8797 13.357 26.4063 13.4541 25.9692 13.6362C26.2484 12.9564 26.4063 12.2037 26.4063 11.4147C26.4063 8.19772 23.7963 5.58774 20.5793 5.58774C19.9724 5.58774 19.3775 5.68486 18.8191 5.85481C17.071 3.34195 14.1576 1.70312 10.8678 1.70312C5.50216 1.70312 1.15625 6.04904 1.15625 11.4147C1.15625 16.7803 5.50216 21.1262 10.8678 21.1262H20.5793Z" stroke="#003569" stroke-width="1.6" stroke-miterlimit="10" stroke-linecap="round" stroke-linejoin="round"/>
<path d="M16.2106 28.8953C17.5515 28.8953 18.6385 27.8083 18.6385 26.4675C18.6385 25.1266 17.5515 24.0396 16.2106 24.0396C14.8697 24.0396 13.7827 25.1266 13.7827 26.4675C13.7827 27.8083 14.8697 28.8953 16.2106 28.8953Z" stroke="#003569" stroke-width="1.6" stroke-miterlimit="10" stroke-linecap="round" stroke-linejoin="round"/>
<path d="M16.2086 21.1261V24.0396" stroke="#003569" stroke-width="1.6" stroke-miterlimit="10" stroke-linecap="round" stroke-linejoin="round"/>
<path d="M18.6368 26.4655H31.2618" stroke="#003569" stroke-width="1.6" stroke-miterlimit="10" stroke-linecap="round" stroke-linejoin="round"/>
<path d="M13.7813 26.4655H1.15625" stroke="#003569" stroke-width="1.6" stroke-miterlimit="10" stroke-linecap="round" stroke-linejoin="round"/>
<path d="M13.2956 18.6991C13.5638 18.6991 13.7812 18.4817 13.7812 18.2135C13.7812 17.9453 13.5638 17.7279 13.2956 17.7279C13.0274 17.7279 12.81 17.9453 12.81 18.2135C12.81 18.4817 13.0274 18.6991 13.2956 18.6991Z" fill="#003569"/>
<path d="M16.209 18.6991C16.4771 18.6991 16.6945 18.4817 16.6945 18.2135C16.6945 17.9453 16.4771 17.7279 16.209 17.7279C15.9408 17.7279 15.7234 17.9453 15.7234 18.2135C15.7234 18.4817 15.9408 18.6991 16.209 18.6991Z" fill="#003569"/>
<path d="M19.1224 18.6991C19.3906 18.6991 19.608 18.4817 19.608 18.2135C19.608 17.9453 19.3906 17.7279 19.1224 17.7279C18.8542 17.7279 18.6368 17.9453 18.6368 18.2135C18.6368 18.4817 18.8542 18.6991 19.1224 18.6991Z" fill="#003569"/>
</svg>
