<svg width="33" height="33" viewBox="0 0 33 33" fill="none" xmlns="http://www.w3.org/2000/svg">
<g id="network_database_1_">
<path id="Vector" d="M16.2106 31.8094C17.5515 31.8094 18.6385 30.7224 18.6385 29.3815C18.6385 28.0406 17.5515 26.9536 16.2106 26.9536C14.8697 26.9536 13.7827 28.0406 13.7827 29.3815C13.7827 30.7224 14.8697 31.8094 16.2106 31.8094Z" stroke="#003569" stroke-width="1.6" stroke-miterlimit="10" stroke-linecap="round" stroke-linejoin="round"/>
<path id="Vector_2" d="M16.2086 24.0402V26.9537" stroke="#003569" stroke-width="1.6" stroke-miterlimit="10" stroke-linecap="round" stroke-linejoin="round"/>
<path id="Vector_3" d="M18.6368 29.3819H31.2618" stroke="#003569" stroke-width="1.6" stroke-miterlimit="10" stroke-linecap="round" stroke-linejoin="round"/>
<path id="Vector_4" d="M13.7813 29.3819H1.15625" stroke="#003569" stroke-width="1.6" stroke-miterlimit="10" stroke-linecap="round" stroke-linejoin="round"/>
<g id="database_2_">
<g id="Group">
<path id="Vector_5" d="M16.2121 8.03991C20.7712 8.03991 24.467 6.62137 24.467 4.87152C24.467 3.12166 20.7712 1.70312 16.2121 1.70312C11.6531 1.70312 7.95734 3.12166 7.95734 4.87152C7.95734 6.62137 11.6531 8.03991 16.2121 8.03991Z" stroke="#003569" stroke-width="1.6" stroke-miterlimit="10" stroke-linecap="round" stroke-linejoin="round"/>
<path id="Vector_6" d="M18.6387 17.2414C18.9069 17.2414 19.1243 17.024 19.1243 16.7559C19.1243 16.4877 18.9069 16.2703 18.6387 16.2703C18.3706 16.2703 18.1532 16.4877 18.1532 16.7559C18.1532 17.024 18.3706 17.2414 18.6387 17.2414Z" fill="#003569"/>
<path id="Vector_7" d="M20.5818 16.7539C20.85 16.7539 21.0674 16.5365 21.0674 16.2683C21.0674 16.0001 20.85 15.7827 20.5818 15.7827C20.3137 15.7827 20.0963 16.0001 20.0963 16.2683C20.0963 16.5365 20.3137 16.7539 20.5818 16.7539Z" fill="#003569"/>
<path id="Vector_8" d="M22.5225 15.7859C22.7907 15.7859 23.0081 15.5685 23.0081 15.3003C23.0081 15.0321 22.7907 14.8147 22.5225 14.8147C22.2544 14.8147 22.037 15.0321 22.037 15.3003C22.037 15.5685 22.2544 15.7859 22.5225 15.7859Z" fill="#003569"/>
<path id="Vector_9" d="M18.6387 22.5831C18.9069 22.5831 19.1243 22.3657 19.1243 22.0975C19.1243 21.8294 18.9069 21.612 18.6387 21.612C18.3706 21.612 18.1532 21.8294 18.1532 22.0975C18.1532 22.3657 18.3706 22.5831 18.6387 22.5831Z" fill="#003569"/>
<path id="Vector_10" d="M20.5818 22.0979C20.85 22.0979 21.0674 21.8805 21.0674 21.6124C21.0674 21.3442 20.85 21.1268 20.5818 21.1268C20.3137 21.1268 20.0963 21.3442 20.0963 21.6124C20.0963 21.8805 20.3137 22.0979 20.5818 22.0979Z" fill="#003569"/>
<path id="Vector_11" d="M22.5225 21.1276C22.7907 21.1276 23.0081 20.9102 23.0081 20.642C23.0081 20.3738 22.7907 20.1564 22.5225 20.1564C22.2544 20.1564 22.037 20.3738 22.037 20.642C22.037 20.9102 22.2544 21.1276 22.5225 21.1276Z" fill="#003569"/>
<path id="Vector_12" d="M18.6387 11.8997C18.9069 11.8997 19.1243 11.6823 19.1243 11.4142C19.1243 11.146 18.9069 10.9286 18.6387 10.9286C18.3706 10.9286 18.1532 11.146 18.1532 11.4142C18.1532 11.6823 18.3706 11.8997 18.6387 11.8997Z" fill="#003569"/>
<path id="Vector_13" d="M20.5818 11.4146C20.85 11.4146 21.0674 11.1972 21.0674 10.929C21.0674 10.6608 20.85 10.4434 20.5818 10.4434C20.3137 10.4434 20.0963 10.6608 20.0963 10.929C20.0963 11.1972 20.3137 11.4146 20.5818 11.4146Z" fill="#003569"/>
<path id="Vector_14" d="M22.5225 10.4442C22.7907 10.4442 23.0081 10.2268 23.0081 9.95863C23.0081 9.69045 22.7907 9.47305 22.5225 9.47305C22.2544 9.47305 22.037 9.69045 22.037 9.95863C22.037 10.2268 22.2544 10.4442 22.5225 10.4442Z" fill="#003569"/>
<path id="Vector_15" d="M7.95734 18.6985V20.8715C7.95734 22.6196 11.6477 24.0399 16.2121 24.0399C20.7766 24.0399 24.467 22.6196 24.467 20.8715V18.6985" stroke="#003569" stroke-width="1.6" stroke-miterlimit="10" stroke-linecap="round" stroke-linejoin="round"/>
<path id="Vector_16" d="M7.95734 13.3592V15.5807C7.95734 17.3288 11.6477 18.7006 16.2121 18.7006C20.7766 18.7006 24.467 17.3409 24.467 15.5807V13.3592" stroke="#003569" stroke-width="1.6" stroke-miterlimit="10" stroke-linecap="round" stroke-linejoin="round"/>
<path id="Vector_17" d="M7.95734 8.01752V10.2997C7.95734 12.0478 11.6477 13.3589 16.2121 13.3589C20.7766 13.3589 24.467 12.0478 24.467 10.2997V8.01752" stroke="#003569" stroke-width="1.6" stroke-miterlimit="10" stroke-linecap="round" stroke-linejoin="round"/>
</g>
</g>
</g>
</svg>
