<svg width="36" height="34" viewBox="0 0 36 34" fill="none" xmlns="http://www.w3.org/2000/svg">
<path d="M13.9533 13.1912C13.4962 13.1912 13.1914 12.8864 13.1914 12.4293V10.9055C13.1914 10.0675 15.7056 8.61987 17.7627 8.61987C19.8198 8.61987 22.334 10.0675 22.334 10.9055V12.4293C22.334 12.8864 22.0293 13.1912 21.5722 13.1912H13.9533Z" stroke="#003569" stroke-width="1.6" stroke-miterlimit="10"/>
<path d="M17.7624 8.61886C19.5909 8.61886 20.8099 7.17128 20.8099 5.34275V4.27611C20.8099 2.44758 19.5909 1 17.7624 1C15.9339 1 14.7148 2.44758 14.7148 4.27611V5.34275C14.7148 7.17128 15.9339 8.61886 17.7624 8.61886Z" stroke="#003569" stroke-width="1.6" stroke-miterlimit="10"/>
<path d="M13.9533 32.9999C13.4962 32.9999 13.1914 32.6952 13.1914 32.238V30.7142C13.1914 29.8762 15.7056 28.4286 17.7627 28.4286C19.8198 28.4286 22.334 29.8762 22.334 30.7142V32.238C22.334 32.6952 22.0293 32.9999 21.5722 32.9999H13.9533Z" stroke="#003569" stroke-width="1.6" stroke-miterlimit="10"/>
<path d="M17.7624 28.4276C19.5909 28.4276 20.8099 26.98 20.8099 25.1515V24.0848C20.8099 22.2563 19.5909 20.8087 17.7624 20.8087C15.9339 20.8087 14.7148 22.2563 14.7148 24.0848V25.1515C14.7148 26.98 15.9339 28.4276 17.7624 28.4276Z" stroke="#003569" stroke-width="1.6" stroke-miterlimit="10"/>
<path d="M1.76189 23.8565C1.30475 23.8565 1 23.5517 1 23.0946V21.5708C1 20.7327 3.51422 19.2852 5.57132 19.2852C7.62841 19.2852 10.1426 20.7327 10.1426 21.5708V23.0946C10.1426 23.5517 9.83788 23.8565 9.38075 23.8565H1.76189Z" stroke="#003569" stroke-width="1.6" stroke-miterlimit="10"/>
<path d="M5.57098 19.2859C7.39951 19.2859 8.61853 17.8383 8.61853 16.0097V14.9431C8.61853 13.1146 7.39951 11.667 5.57098 11.667C3.74246 11.667 2.52344 13.1146 2.52344 14.9431V16.0097C2.52344 17.8383 3.74246 19.2859 5.57098 19.2859Z" stroke="#003569" stroke-width="1.6" stroke-miterlimit="10"/>
<path d="M26.1427 23.8565C25.6856 23.8565 25.3809 23.5517 25.3809 23.0946V21.5708C25.3809 20.7327 27.8951 19.2852 29.9522 19.2852C32.0093 19.2852 34.5235 20.7327 34.5235 21.5708V23.0946C34.5235 23.5517 34.2187 23.8565 33.7616 23.8565H26.1427Z" stroke="#003569" stroke-width="1.6" stroke-miterlimit="10"/>
<path d="M29.9499 19.2859C31.7784 19.2859 32.9974 17.8383 32.9974 16.0097V14.9431C32.9974 13.1146 31.7784 11.667 29.9499 11.667C28.1214 11.667 26.9023 13.1146 26.9023 14.9431V16.0097C26.9023 17.8383 28.1214 19.2859 29.9499 19.2859Z" stroke="#003569" stroke-width="1.6" stroke-miterlimit="10"/>
<path d="M5.95117 9.38186C7.55113 7.0962 9.83679 5.34386 12.4272 4.27722" stroke="#003569" stroke-width="1.6" stroke-miterlimit="10"/>
<path d="M10.9034 30.485C8.92253 29.4183 7.24638 27.8945 5.95117 26.1422" stroke="#003569" stroke-width="1.6" stroke-miterlimit="10"/>
<path d="M29.5717 9.38186C27.9718 7.0962 25.6861 5.34386 23.0957 4.27722" stroke="#003569" stroke-width="1.6" stroke-miterlimit="10"/>
<path d="M24.6191 30.485C26.6 29.4183 28.2762 27.8945 29.5714 26.1422" stroke="#003569" stroke-width="1.6" stroke-miterlimit="10"/>
</svg>
