<svg width="30" height="31" viewBox="0 0 30 31" fill="none" xmlns="http://www.w3.org/2000/svg">
<path fill-rule="evenodd" clip-rule="evenodd" d="M17.2218 5.91853C17.9121 5.22827 18.8865 4.94886 20.0021 4.94886H22.0021C23.1177 4.94886 24.0922 5.22827 24.7825 5.91853C25.4727 6.60879 25.7521 7.58326 25.7521 8.69886V10.6989C25.7521 11.8145 25.4727 12.7889 24.7825 13.4792C24.0922 14.1695 23.1177 14.4489 22.0021 14.4489H20.0021C18.8865 14.4489 17.9121 14.1695 17.2218 13.4792C16.5315 12.7889 16.2521 11.8145 16.2521 10.6989V8.69886C16.2521 7.58326 16.5315 6.60879 17.2218 5.91853ZM18.2825 6.97919C17.9727 7.28893 17.7521 7.81447 17.7521 8.69886V10.6989C17.7521 11.5833 17.9727 12.1088 18.2825 12.4185C18.5922 12.7283 19.1177 12.9489 20.0021 12.9489H22.0021C22.8865 12.9489 23.4121 12.7283 23.7218 12.4185C24.0315 12.1088 24.2521 11.5833 24.2521 10.6989V8.69886C24.2521 7.81447 24.0315 7.28893 23.7218 6.97919C23.4121 6.66945 22.8865 6.44886 22.0021 6.44886H20.0021C19.1177 6.44886 18.5922 6.66945 18.2825 6.97919Z" fill="#003569"/>
<path fill-rule="evenodd" clip-rule="evenodd" d="M9.00214 6.44886C7.20721 6.44886 5.75214 7.90394 5.75214 9.69886C5.75214 11.4938 7.20721 12.9489 9.00214 12.9489C10.7971 12.9489 12.2521 11.4938 12.2521 9.69886C12.2521 7.90394 10.7971 6.44886 9.00214 6.44886ZM4.25214 9.69886C4.25214 7.07551 6.37878 4.94886 9.00214 4.94886C11.6255 4.94886 13.7521 7.07551 13.7521 9.69886C13.7521 12.3222 11.6255 14.4489 9.00214 14.4489C6.37878 14.4489 4.25214 12.3222 4.25214 9.69886Z" fill="#003569"/>
<path fill-rule="evenodd" clip-rule="evenodd" d="M21.0021 18.2028C19.2072 18.2028 17.7521 19.6578 17.7521 21.4528C17.7521 23.2477 19.2072 24.7028 21.0021 24.7028C22.7971 24.7028 24.2521 23.2477 24.2521 21.4528C24.2521 19.6578 22.7971 18.2028 21.0021 18.2028ZM16.2521 21.4528C16.2521 18.8294 18.3788 16.7028 21.0021 16.7028C23.6255 16.7028 25.7521 18.8294 25.7521 21.4528C25.7521 24.0761 23.6255 26.2028 21.0021 26.2028C18.3788 26.2028 16.2521 24.0761 16.2521 21.4528Z" fill="#003569"/>
<path d="M9.6631 18.3526C9.52669 18.1163 9.2746 17.9707 9.00178 17.9707C8.72895 17.9707 8.47686 18.1163 8.34045 18.3526L5.0338 24.0798C4.89739 24.3161 4.89739 24.6072 5.0338 24.8435C5.17022 25.0797 5.42231 25.2253 5.69513 25.2253H12.3084C12.5812 25.2253 12.8333 25.0797 12.9697 24.8435C13.1062 24.6072 13.1062 24.3161 12.9697 24.0798L9.6631 18.3526Z" stroke="#003569" stroke-width="1.52727" stroke-linejoin="round"/>
<rect x="1" y="1.70312" width="28" height="28" rx="4" stroke="#003569" stroke-width="1.6" stroke-miterlimit="10" stroke-linecap="round" stroke-linejoin="round"/>
</svg>
