<svg width="430" height="117" viewBox="0 0 430 117" fill="none" xmlns="http://www.w3.org/2000/svg">
<path d="M245.608 67.3067C245.608 67.3067 245.217 72.2203 240.729 87.0455C236.24 101.871 219.883 107.225 219.883 107.225L226.784 111.754L263.268 111.419L284.117 106.541C284.117 106.541 269.127 95.3854 265.509 84.1674C261.892 72.9493 262.202 67.436 262.202 67.436L245.608 67.3067Z" fill="url(#paint0_linear_1_598)"/>
<path d="M249.25 67.3327C249.25 67.3327 249.26 70.8342 247.18 83.8287C246.088 90.6572 241.964 99.3725 237.502 103.951C233.475 108.091 228.774 109.965 228.774 109.965L243.781 115.426L266.24 116.645L284.672 112.568C284.672 112.568 277.693 110.002 273.087 106.053C266.711 100.591 262.026 92.4707 260.986 84.6549C259.199 71.1819 259.229 67.4166 259.229 67.4166L249.25 67.3388L249.25 67.3327Z" fill="url(#paint1_linear_1_598)"/>
<path d="M240.971 49.2307C239.771 49.2213 234.201 53.1721 233 56.5262C231.799 59.8804 234.114 70.6072 235.017 70.6142C235.66 70.6192 236.305 68.757 236.61 67.7083C237.017 66.3018 238.102 65.1602 239.502 64.7754C239.886 64.6671 240.295 64.6085 240.703 64.6116L242.978 64.6294L240.971 49.2307Z" fill="#FC8B31"/>
<path d="M241.392 52.4268C241.02 52.5475 239.197 53.1392 237.743 54.1543C235.915 55.4137 234.832 56.3451 234.19 57.8363C233.547 59.3399 234.277 67.235 234.861 68.5132C235.444 69.8038 236.42 68.3275 236.42 68.3275C236.37 68.4879 236.307 68.6481 236.256 68.8085C236.243 68.8455 236.231 68.8825 236.218 68.9195C236.218 68.9319 236.205 68.9565 236.193 68.9688C236.18 69.0181 236.155 69.0674 236.13 69.1167C236.13 69.129 236.13 69.129 236.117 69.1413C236.092 69.2029 236.067 69.2522 236.042 69.3138C236.017 69.3755 235.991 69.4371 235.954 69.4986C235.941 69.5356 235.916 69.5849 235.891 69.6218C235.878 69.6464 235.866 69.6711 235.853 69.6957C235.828 69.745 235.803 69.7942 235.766 69.8558C235.715 69.9419 235.678 70.0158 235.628 70.0896C235.553 70.2004 235.49 70.2988 235.415 70.3724C235.353 70.4337 235.303 70.4828 235.241 70.5194C235.229 70.5317 235.216 70.544 235.191 70.5438C235.167 70.556 235.142 70.5681 235.104 70.5802C235.092 70.5801 235.08 70.5924 235.08 70.5924C235.067 70.5923 235.055 70.5922 235.042 70.6045C235.03 70.6044 235.018 70.6043 235.005 70.6042C234.103 70.5971 231.787 59.8703 232.988 56.5162C234.189 53.1621 239.76 49.1989 240.959 49.2206L241.392 52.4268Z" fill="#FFBB69"/>
<path d="M242.989 64.6292L240.714 64.6115C240.306 64.6083 239.897 64.6669 239.513 64.7752C239.29 64.8353 239.092 64.9203 238.881 65.0052C238.931 64.9685 241.006 63.6617 241.319 61.5126C241.633 59.3512 241.588 53.9474 241.588 53.9474L242.989 64.6292Z" fill="#E07024"/>
<path d="M267.186 49.4413C268.385 49.4506 273.894 53.4877 275.042 56.8601C276.19 60.2325 273.708 70.922 272.806 70.9149C272.163 70.9099 271.547 69.0379 271.258 67.9846C270.873 66.5719 269.806 65.4135 268.412 65.007C268.03 64.8927 267.622 64.8277 267.214 64.8245L264.939 64.8068L267.186 49.4413Z" fill="#E07024"/>
<path d="M264.927 64.8017L267.202 64.8195C267.61 64.8226 268.018 64.8876 268.4 65.0019C268.622 65.0654 268.819 65.1535 269.029 65.2417C268.98 65.2042 266.925 63.8652 266.645 61.7115C266.365 59.5455 266.494 54.1431 266.494 54.1431L264.927 64.8017Z" fill="#C64817"/>
<path d="M266.712 52.6273C267.082 52.7538 268.895 53.3738 270.334 54.4114C272.141 55.6992 273.21 56.6473 273.829 58.1484C274.448 59.6618 273.595 67.5445 272.991 68.8135C272.388 70.0949 271.435 68.6035 271.435 68.6035C271.483 68.7647 271.544 68.9259 271.592 69.087C271.604 69.1242 271.616 69.1614 271.628 69.1986C271.628 69.211 271.64 69.2358 271.652 69.2483C271.664 69.2978 271.689 69.3475 271.713 69.3971C271.713 69.4095 271.713 69.4095 271.725 69.4219C271.749 69.484 271.774 69.5336 271.798 69.5956C271.822 69.6577 271.847 69.7197 271.883 69.7818C271.895 69.819 271.92 69.8686 271.944 69.9059C271.956 69.9307 271.968 69.9556 271.981 69.9804C272.005 70.03 272.029 70.0797 272.066 70.1418C272.115 70.2288 272.151 70.3032 272.2 70.3778C272.273 70.4897 272.334 70.5891 272.408 70.6638C272.469 70.7261 272.518 70.776 272.58 70.8136C272.592 70.826 272.604 70.8385 272.629 70.8387C272.654 70.8512 272.678 70.8638 272.715 70.8765C272.728 70.8766 272.74 70.889 272.74 70.889C272.752 70.8891 272.765 70.8892 272.777 70.9017C272.789 70.9018 272.802 70.9019 272.814 70.902C273.717 70.909 276.199 60.2196 275.051 56.8471C273.902 53.4747 268.394 49.4253 267.194 49.4283L266.712 52.6273Z" fill="#C64817"/>
<path d="M266.258 14.0492C262.24 6.06667 257.426 0.143056 254.458 0.119935C251.491 0.0968147 246.148 6.49776 242.443 13.8636C238.738 21.2295 238.541 27.4232 239.03 34.4632L242.987 64.617L264.923 64.7879L269.349 34.6994C269.948 27.6679 270.277 22.044 266.258 14.0492Z" fill="white"/>
<path d="M261.767 6.47212L257.216 6.43667C259.77 10.4383 263.649 18.8402 264.036 26.2751C264.436 33.71 261.452 61.1141 256.877 61.0784C252.302 61.0428 245.86 60.9926 245.86 60.9926C244.092 60.9788 240.956 49.244 240.956 49.244L242.975 64.6304L243.045 65.1626C243.209 66.3881 244.24 67.2989 245.477 67.3085L262.368 67.4401C263.604 67.4497 264.65 66.5428 264.832 65.3324L264.911 64.8013L269.337 34.7127C269.936 27.6813 270.264 22.0574 266.246 14.0625C264.821 11.2073 263.283 8.62322 261.767 6.47212Z" fill="#DFEAE8"/>
<path d="M255.817 38.3731C261.587 38.418 266.299 34.0537 266.341 28.625C266.384 23.1963 261.74 18.7591 255.97 18.7141C250.2 18.6692 245.488 23.0336 245.446 28.4622C245.404 33.8909 250.047 38.3281 255.817 38.3731Z" fill="#DFEAE8"/>
<path d="M258.249 52.0619C258.249 52.0619 258.912 57.4705 260.087 59.0376C261.249 60.6047 254.018 61.8466 254.018 61.8466L258.249 52.0619Z" fill="#DFEAE8"/>
<path d="M261.767 6.46839L247.041 6.35367C249.79 2.62853 252.592 0.103199 254.459 0.117745C256.363 0.132579 259.039 2.58931 261.767 6.46839Z" fill="#FC8B31"/>
<path d="M243.057 65.1501C243.22 66.3756 244.252 67.2864 245.488 67.296L262.379 67.4276C263.616 67.4372 264.661 66.5303 264.844 65.3199L264.922 64.7888L242.987 64.6179L243.057 65.1501Z" fill="#C64817"/>
<path d="M258.246 52.0615C258.058 50.774 255.554 48.3184 254.12 48.3073C252.686 48.2961 250.144 50.7 249.936 51.9968C249.729 53.2812 252.652 71.6548 253.938 71.6648C255.224 71.6748 258.446 53.3491 258.246 52.0615Z" fill="#FC8B31"/>
<path d="M254.205 37.3491C259.634 37.3914 264.069 33.0249 264.111 27.5962C264.153 22.1676 259.787 17.7325 254.358 17.6902C248.93 17.6479 244.494 22.0144 244.452 27.4431C244.41 32.8718 248.776 37.3068 254.205 37.3491Z" fill="#FC8B31"/>
<path d="M261.023 31.7638C263.364 28.0409 262.243 23.1251 258.52 20.7841C254.797 18.4432 249.881 19.5635 247.54 23.2865C245.199 27.0095 246.32 31.9253 250.043 34.2663C253.766 36.6072 258.682 35.4868 261.023 31.7638Z" fill="#E07024"/>
<path d="M264.126 27.5979C264.083 33.0258 259.648 37.3931 254.22 37.3508C250.721 37.3236 247.668 35.4822 245.947 32.7114C249.736 35.1521 254.833 34.7466 258.173 31.4465C261.512 28.1587 262.01 23.0559 259.628 19.2414C262.347 21.0184 264.153 24.1113 264.126 27.5979Z" fill="#E07024"/>
<path d="M254.228 34.6904C258.189 34.7213 261.424 31.5356 261.455 27.5751C261.486 23.6146 258.3 20.3789 254.34 20.348C250.379 20.3172 247.144 23.5028 247.113 27.4634C247.082 31.4239 250.268 34.6596 254.228 34.6904Z" fill="#238C7D"/>
<path d="M253.443 32.1478C256.537 32.1719 259.064 29.6838 259.088 26.5905C259.112 23.4972 256.624 20.97 253.531 20.9459C250.437 20.9219 247.91 23.4099 247.886 26.5033C247.862 29.5966 250.35 32.1237 253.443 32.1478Z" fill="url(#paint2_linear_1_598)"/>
<path d="M254.459 0.122407C252.851 0.109884 250.549 1.98377 248.177 4.8834C248.177 4.8834 251.161 2.7428 253.925 3.51859C254.69 3.73475 256.227 4.88429 257.216 6.42524L261.766 6.46069C259.039 2.59397 256.363 0.137241 254.459 0.122407Z" fill="#E07024"/>
<path d="M253.937 71.6663C253.652 71.6641 253.301 70.7957 252.916 69.4201C252.952 69.4452 253.824 70.2434 254.353 69.0356C254.882 67.8279 255.667 54.3553 255.237 52.3982C254.807 50.441 251.474 49.7597 251.474 49.7597L252.593 48.8781C253.14 48.5361 253.686 48.3054 254.119 48.3088C255.553 48.3199 258.057 50.7631 258.244 52.063C258.445 53.3506 255.223 71.6763 253.937 71.6663Z" fill="#E07024"/>
<path d="M252.8 25.8749C253.929 24.7635 254.168 23.1761 253.335 22.3294C252.501 21.4827 250.91 21.6973 249.781 22.8088C248.652 23.9203 248.413 25.5077 249.246 26.3544C250.08 27.2011 251.671 26.9864 252.8 25.8749Z" fill="white"/>
<mask id="mask0_1_598" style="mask-type:alpha" maskUnits="userSpaceOnUse" x="0" y="64" width="430" height="43">
<rect y="64.8713" width="429.772" height="41.2328" fill="#D9D9D9"/>
</mask>
<g mask="url(#mask0_1_598)">
<path d="M226.78 99.1201V112.447H134.799V71.2141C141.143 71.2141 146.365 76.0013 146.976 82.1295C147 82.1295 147.018 82.1295 147.035 82.1295C150.169 82.1295 152.738 84.5231 152.988 87.5637C153.747 87.3637 154.542 87.2578 155.361 87.2578C160.263 87.2578 164.269 91.0512 164.547 95.8384C165.331 95.5091 166.191 95.3268 167.093 95.3268C167.983 95.3268 168.832 95.5032 169.603 95.8208C171.235 93.2625 174.108 91.5628 177.389 91.5628C180.19 91.5628 182.7 92.8038 184.386 94.7622C185.97 92.0157 188.955 90.1572 192.379 90.1572C197.168 90.1572 201.096 93.78 201.542 98.4085C201.886 98.3556 202.242 98.3262 202.598 98.3262C204.574 98.3262 206.348 99.1789 207.565 100.537C208.099 100.396 208.663 100.326 209.244 100.326C210.3 100.326 211.297 100.567 212.182 101.002C213.766 98.238 216.763 96.3736 220.193 96.3736C222.78 96.3795 225.112 97.4264 226.78 99.1201Z" fill="white"/>
<path d="M415.5 106.103L410.742 112.447H318.761V71.2141C325.105 71.2141 330.327 76.0013 330.938 82.1295C330.962 82.1295 330.98 82.1295 330.998 82.1295C334.131 82.1295 336.701 84.5231 336.95 87.5637C337.709 87.3637 338.505 87.2578 339.323 87.2578C344.225 87.2578 348.231 91.0512 348.51 95.8384C349.293 95.5091 350.153 95.3268 351.055 95.3268C351.946 95.3268 352.794 95.5032 353.566 95.8208C355.198 93.2625 358.07 91.5628 361.351 91.5628C364.152 91.5628 366.663 92.8038 368.348 94.7622C369.932 92.0157 372.917 90.1572 376.341 90.1572C381.13 90.1572 385.059 93.78 385.504 98.4085C385.848 98.3556 386.204 98.3262 386.56 98.3262C388.536 98.3262 390.311 99.1789 391.527 100.537C392.061 100.396 392.625 100.326 393.206 100.326C394.263 100.326 395.26 100.567 396.144 101.002C397.728 98.238 400.725 96.3736 404.155 96.3736C409.156 96.3736 413.914 99.7598 415.5 106.103Z" fill="white"/>
<path d="M38.0606 106.103L42.8183 112.447H134.799V71.2141C128.455 71.2141 123.233 76.0013 122.622 82.1295C122.598 82.1295 122.58 82.1295 122.563 82.1295C119.429 82.1295 116.86 84.5231 116.611 87.5637C115.851 87.3637 115.056 87.2578 114.237 87.2578C109.335 87.2578 105.33 91.0512 105.051 95.8384C104.267 95.5091 103.407 95.3268 102.505 95.3268C101.615 95.3268 100.766 95.5032 99.9947 95.8208C98.3628 93.2625 95.4906 91.5628 92.209 91.5628C89.408 91.5628 86.8978 92.8038 85.2125 94.7622C83.6281 92.0157 80.6431 90.1572 77.2191 90.1572C72.4301 90.1572 68.5017 93.78 68.0566 98.4085C67.7124 98.3556 67.3564 98.3262 67.0003 98.3262C65.0242 98.3262 63.2499 99.1789 62.0334 100.537C61.4993 100.396 60.9355 100.326 60.354 100.326C59.2977 100.326 58.3007 100.567 57.4165 101.002C55.8321 98.238 52.8353 96.3736 49.4053 96.3736C44.4041 96.3736 39.6465 99.7598 38.0606 106.103Z" fill="white"/>
<path d="M318.762 71.2141V112.447H226.781V99.1201C227.256 99.5965 227.671 100.126 228.027 100.702C228.716 100.461 229.457 100.332 230.235 100.332C232.763 100.332 234.964 101.731 236.086 103.796C236.596 103.519 237.184 103.36 237.807 103.36C239.059 103.36 240.163 104.001 240.804 104.966C241.735 104.513 242.78 104.26 243.889 104.26C245.48 104.26 246.946 104.784 248.121 105.666C248.845 102.808 251.456 100.696 254.559 100.696C256.351 100.696 257.977 101.396 259.17 102.543C260.535 99.5142 263.52 97.3675 267.027 97.1617C268.439 91.9216 273.258 88.0636 278.991 88.0636C282.165 88.0636 285.061 89.2457 287.251 91.1982C288.456 89.9632 290.147 89.1927 292.022 89.1927C293.814 89.1927 295.434 89.8926 296.627 91.0335C297.458 90.269 298.568 89.8044 299.784 89.7985C299.654 89.228 299.582 88.634 299.582 88.0224C299.582 83.8291 302.834 80.3945 306.976 80.0534C308.436 74.9486 313.16 71.2141 318.762 71.2141Z" fill="white"/>
</g>
<defs>
<linearGradient id="paint0_linear_1_598" x1="252.285" y1="70.2785" x2="252.083" y2="96.123" gradientUnits="userSpaceOnUse">
<stop stop-color="#E6E6E6"/>
<stop offset="1" stop-color="white"/>
</linearGradient>
<linearGradient id="paint1_linear_1_598" x1="257.042" y1="68.155" x2="256.794" y2="100.064" gradientUnits="userSpaceOnUse">
<stop stop-color="#CACACA"/>
<stop offset="1" stop-color="white"/>
</linearGradient>
<linearGradient id="paint2_linear_1_598" x1="256.453" y1="30.82" x2="250.625" y2="22.4077" gradientUnits="userSpaceOnUse">
<stop stop-color="#3BB0A8"/>
<stop offset="1" stop-color="#79CFC9"/>
</linearGradient>
</defs>
</svg>
